<svg width="103" height="34" fill="none" xmlns="http://www.w3.org/2000/svg"><rect width="34" height="34" rx="4" fill="#152129"/><path d="M49.684 15.055a1.806 1.806 0 00-1.25.566c-.326.352-.56.755-.703 1.211a4.412 4.412 0 00-.215 1.367c0 .469.065.931.195 1.387.143.456.384.86.723 1.21.338.34.755.522 1.25.548h6.445c.82.078 1.27.527 1.348 1.347-.013.365-.15.671-.41.918a1.354 1.354 0 01-.938.352H49c-.911-.052-1.66-.397-2.246-1.035a5.964 5.964 0 01-1.27-2.207 8.68 8.68 0 01-.37-2.52c0-.638.07-1.27.214-1.894a7.128 7.128 0 01.664-1.778 4.767 4.767 0 011.23-1.464A2.922 2.922 0 0149 12.437h7.129c.82.079 1.27.528 1.348 1.348 0 .365-.137.67-.41.918a1.354 1.354 0 01-.938.352h-6.445zm14.684 5.879c0-.365.124-.671.371-.918.26-.26.573-.391.938-.391h2.988l-.508-1.445a35.182 35.182 0 00-.625-1.504 7.279 7.279 0 00-.684-1.309c-.234-.39-.5-.599-.8-.625-.313.026-.593.235-.84.625-.248.39-.475.827-.684 1.309-.195.469-.397.97-.605 1.504l-1.856 5.078c-.13.273-.3.501-.508.683-.195.17-.494.254-.898.254-.378 0-.69-.13-.938-.39a1.215 1.215 0 01-.312-.938c.013-.17.052-.325.117-.469l2.149-5.546c.599-1.459 1.198-2.637 1.796-3.536.586-.885 1.446-1.334 2.579-1.347 1.12.013 1.972.462 2.558 1.347.6.873 1.198 2.051 1.797 3.536l2.149 5.546c.065.144.104.3.117.47.026.364-.085.676-.332.937-.235.26-.54.39-.918.39-.43 0-.749-.084-.957-.254a2.238 2.238 0 01-.489-.683l-.37-1.016h-3.926c-.365 0-.671-.13-.918-.39a1.216 1.216 0 01-.391-.918zm12.263-8.809c.364 0 .677.124.937.371.26.234.397.534.41.899v4.707c-.013.533.02 1.028.098 1.484.09.443.3.84.625 1.191.325.352.736.54 1.23.567h6.25c.365.013.664.15.899.41a1.295 1.295 0 01-.02 1.836 1.262 1.262 0 01-.879.37h-6.914c-.911-.051-1.666-.357-2.265-.917a4.976 4.976 0 01-1.27-2.09 9.484 9.484 0 01-.39-2.617v-4.941c.012-.352.143-.645.39-.88.247-.247.547-.377.898-.39zm17.828 2.93a1.806 1.806 0 00-1.25.566c-.325.352-.56.755-.703 1.211a4.415 4.415 0 00-.215 1.367c0 .469.066.931.196 1.387.143.456.384.86.722 1.21.339.34.756.522 1.25.548h6.446c.82.078 1.269.527 1.347 1.347a1.28 1.28 0 01-.41.918 1.35 1.35 0 01-.937.352h-7.13c-.91-.052-1.66-.397-2.245-1.035a5.963 5.963 0 01-1.27-2.207 8.68 8.68 0 01-.37-2.52c0-.638.07-1.27.214-1.894a7.124 7.124 0 01.664-1.778 4.769 4.769 0 011.23-1.464 2.922 2.922 0 011.778-.626h7.129c.82.079 1.269.528 1.347 1.348 0 .365-.136.67-.41.918a1.35 1.35 0 01-.937.352h-6.446z" fill="#2E2E2E"/><path fill-rule="evenodd" clip-rule="evenodd" d="M14.76 11.22h-3.48v3.4H8.7v-3.4H5.24V8.78H8.7v-3.4h2.58v3.4h3.48v2.44zm7.436-3.132h6.509v2.875h-6.509V8.088zM11.928 23.664l2.071 1.121-.931 1.558-2.09-1.235.038 2.299H9.23l.019-2.318-2.09 1.254-.912-1.558 2.071-1.121-2.071-1.14.912-1.558 2.09 1.254-.019-2.318h1.786l-.038 2.318 2.09-1.254.931 1.558-2.071 1.14zm9.94-3.154h6.664v1.708h-6.664V20.51zm0 3.472h6.664v1.708h-6.664v-1.708z" fill="#3C75D1" fill-opacity=".9"/></svg>