<svg width="14" height="17" fill="none" xmlns="http://www.w3.org/2000/svg"><path d="M4.625 9.563h-1.25c-.206 0-.375-.18-.375-.399V7.836c0-.22.169-.399.375-.399h1.25c.206 0 .375.18.375.399v1.328c0 .22-.169.399-.375.399zM8 9.163V7.836c0-.22-.169-.399-.375-.399h-1.25c-.206 0-.375.18-.375.399v1.328c0 .22.169.399.375.399h1.25c.206 0 .375-.18.375-.399zm3 0V7.836c0-.22-.169-.399-.375-.399h-1.25c-.206 0-.375.18-.375.399v1.328c0 .22.169.399.375.399h1.25c.206 0 .375-.18.375-.399zm-3 3.188v-1.329c0-.219-.169-.398-.375-.398h-1.25c-.206 0-.375.18-.375.398v1.329c0 .219.169.398.375.398h1.25c.206 0 .375-.18.375-.398zm-3 0v-1.329c0-.219-.169-.398-.375-.398h-1.25c-.206 0-.375.18-.375.398v1.329c0 .219.169.398.375.398h1.25c.206 0 .375-.18.375-.398zm6 0v-1.329c0-.219-.169-.398-.375-.398h-1.25c-.206 0-.375.18-.375.398v1.329c0 .219.169.398.375.398h1.25c.206 0 .375-.18.375-.398zm3-8.633v11.687c0 .88-.672 1.594-1.5 1.594h-11C.672 17 0 16.286 0 15.406V3.72c0-.88.672-1.594 1.5-1.594H3V.398C3 .18 3.169 0 3.375 0h1.25C4.831 0 5 .18 5 .398v1.727h4V.398C9 .18 9.169 0 9.375 0h1.25c.206 0 .375.18.375.398v1.727h1.5c.828 0 1.5.714 1.5 1.594zm-1.5 11.488V5.312h-11v9.895c0 .11.084.2.188.2h10.624c.104 0 .188-.09.188-.2z" fill="#9F9F9F"/></svg>