<svg width="48" height="48" viewBox="0 0 48 48" fill="none" xmlns="http://www.w3.org/2000/svg">
<path d="M20.5359 6C22.0755 3.33333 25.9245 3.33333 27.4641 6L41.3205 30C42.8601 32.6667 40.9356 36 37.8564 36H10.1436C7.06439 36 5.13989 32.6667 6.67949 30L20.5359 6Z" fill="#EE4520"/>
<path d="M22.32 15H25.28L24.78 24.36H22.8L22.32 15ZM23.8 29.14C23.3333 29.14 22.9467 28.9933 22.64 28.7C22.3333 28.3933 22.18 28.02 22.18 27.58C22.18 27.14 22.3333 26.7733 22.64 26.48C22.9467 26.1867 23.3333 26.04 23.8 26.04C24.2533 26.04 24.6267 26.1867 24.92 26.48C25.2267 26.7733 25.38 27.14 25.38 27.58C25.38 28.02 25.2267 28.3933 24.92 28.7C24.6267 28.9933 24.2533 29.14 23.8 29.14Z" fill="white"/>
</svg>
