<svg width="103" height="34" viewBox="0 0 103 34" fill="none" xmlns="http://www.w3.org/2000/svg">
<rect width="34" height="34" rx="4" fill="#152129"/>
<path d="M49.6836 15.0547C49.1888 15.0807 48.7721 15.2695 48.4336 15.6211C48.1081 15.9727 47.8737 16.3763 47.7305 16.832C47.5872 17.2747 47.5156 17.7305 47.5156 18.1992C47.5156 18.668 47.5807 19.1302 47.7109 19.5859C47.8542 20.0417 48.0951 20.4453 48.4336 20.7969C48.7721 21.1354 49.1888 21.3177 49.6836 21.3438H56.1289C56.9492 21.4219 57.3984 21.8711 57.4766 22.6914C57.4635 23.056 57.3268 23.362 57.0664 23.6094C56.806 23.8438 56.4935 23.9609 56.1289 23.9609H49.8984H49C48.0885 23.9089 47.3398 23.5638 46.7539 22.9258C46.168 22.2747 45.7448 21.5391 45.4844 20.7188C45.237 19.8984 45.1133 19.0586 45.1133 18.1992C45.1133 17.5612 45.1849 16.9297 45.3281 16.3047C45.4714 15.6797 45.6927 15.0872 45.9922 14.5273C46.3047 13.9544 46.7148 13.4661 47.2227 13.0625C47.7435 12.6589 48.3359 12.4505 49 12.4375H49.3711H56.1289C56.9492 12.5156 57.3984 12.9648 57.4766 13.7852C57.4766 14.1497 57.3398 14.4557 57.0664 14.7031C56.806 14.9375 56.4935 15.0547 56.1289 15.0547H49.6836ZM64.368 20.9336C64.368 20.569 64.4917 20.263 64.7391 20.0156C64.9995 19.7552 65.312 19.625 65.6766 19.625H68.6648L68.157 18.1797C67.9487 17.6458 67.7404 17.1445 67.532 16.6758C67.3367 16.194 67.1089 15.7578 66.8484 15.3672C66.6141 14.9766 66.3471 14.7682 66.0477 14.7422C65.7352 14.7682 65.4552 14.9766 65.2078 15.3672C64.9604 15.7578 64.7326 16.194 64.5242 16.6758C64.3289 17.1445 64.1271 17.6458 63.9187 18.1797L62.0633 23.2578C61.9331 23.5312 61.7638 23.7591 61.5555 23.9414C61.3602 24.1107 61.0607 24.1953 60.657 24.1953C60.2794 24.1953 59.9669 24.0651 59.7195 23.8047C59.4852 23.5443 59.381 23.2318 59.407 22.8672C59.4201 22.6979 59.4591 22.5417 59.5242 22.3984L61.6727 16.8516C62.2716 15.3932 62.8706 14.2148 63.4695 13.3164C64.0555 12.431 64.9148 11.9818 66.0477 11.9688C67.1674 11.9818 68.0203 12.431 68.6062 13.3164C69.2052 14.1888 69.8042 15.3672 70.4031 16.8516L72.5516 22.3984C72.6167 22.5417 72.6557 22.6979 72.6687 22.8672C72.6948 23.2318 72.5841 23.5443 72.3367 23.8047C72.1023 24.0651 71.7964 24.1953 71.4187 24.1953C70.9891 24.1953 70.6701 24.1107 70.4617 23.9414C70.2664 23.7591 70.1036 23.5312 69.9734 23.2578L69.6023 22.2422H65.6766C65.312 22.2422 65.006 22.112 64.7586 21.8516C64.4982 21.6042 64.368 21.2982 64.368 20.9336ZM76.6305 12.125C76.9951 12.125 77.3076 12.2487 77.568 12.4961C77.8284 12.7305 77.9651 13.0299 77.9781 13.3945V18.1016C77.9651 18.6354 77.9977 19.1302 78.0758 19.5859C78.1669 20.0286 78.3753 20.4258 78.7008 20.7773C79.0263 21.1289 79.4365 21.3177 79.9312 21.3438H86.1812C86.5458 21.3568 86.8453 21.4935 87.0797 21.7539C87.3271 22.0143 87.4508 22.3268 87.4508 22.6914C87.4378 23.043 87.3076 23.3424 87.0602 23.5898C86.8258 23.8242 86.5328 23.9479 86.1812 23.9609H79.2672C78.3557 23.9089 77.6005 23.6029 77.0016 23.043C76.4156 22.4701 75.9924 21.7734 75.732 20.9531C75.4846 20.1328 75.3544 19.2604 75.3414 18.3359V13.3945C75.3544 13.043 75.4846 12.75 75.732 12.5156C75.9794 12.2682 76.2789 12.138 76.6305 12.125ZM94.4594 15.0547C93.9646 15.0807 93.5479 15.2695 93.2094 15.6211C92.8839 15.9727 92.6495 16.3763 92.5062 16.832C92.363 17.2747 92.2914 17.7305 92.2914 18.1992C92.2914 18.668 92.3565 19.1302 92.4867 19.5859C92.6299 20.0417 92.8708 20.4453 93.2094 20.7969C93.5479 21.1354 93.9646 21.3177 94.4594 21.3438H100.905C101.725 21.4219 102.174 21.8711 102.252 22.6914C102.239 23.056 102.103 23.362 101.842 23.6094C101.582 23.8438 101.269 23.9609 100.905 23.9609H94.6742H93.7758C92.8643 23.9089 92.1156 23.5638 91.5297 22.9258C90.9437 22.2747 90.5206 21.5391 90.2602 20.7188C90.0128 19.8984 89.8891 19.0586 89.8891 18.1992C89.8891 17.5612 89.9607 16.9297 90.1039 16.3047C90.2471 15.6797 90.4685 15.0872 90.768 14.5273C91.0805 13.9544 91.4906 13.4661 91.9984 13.0625C92.5193 12.6589 93.1117 12.4505 93.7758 12.4375H94.1469H100.905C101.725 12.5156 102.174 12.9648 102.252 13.7852C102.252 14.1497 102.116 14.4557 101.842 14.7031C101.582 14.9375 101.269 15.0547 100.905 15.0547H94.4594Z" fill="#2E2E2E"/>
<path fill-rule="evenodd" clip-rule="evenodd" d="M14.76 11.22H11.28V14.62H8.7V11.22H5.24V8.78H8.7V5.38H11.28V8.78H14.76V11.22ZM22.196 8.088H28.705V10.963H22.196V8.088ZM11.928 23.664L13.999 24.785L13.068 26.343L10.978 25.108L11.016 27.407H9.22999L9.24899 25.089L7.15899 26.343L6.24699 24.785L8.31799 23.664L6.24699 22.524L7.15899 20.966L9.24899 22.22L9.22999 19.902H11.016L10.978 22.22L13.068 20.966L13.999 22.524L11.928 23.664ZM21.868 20.51H28.532V22.218H21.868V20.51ZM21.868 23.982H28.532V25.69H21.868V23.982Z" fill="#3C75D1" fill-opacity="0.9"/>
</svg>
